<svg width="198" height="307" viewBox="0 0 198 307" fill="none" xmlns="http://www.w3.org/2000/svg">
<path fill-rule="evenodd" clip-rule="evenodd" d="M172.754 1.5H143.129L1 1.50001V234.22L55.8707 159.873V141.474H69.4498L100.059 100H55.8707V36.0614H143.129V41.6408L172.754 1.5ZM130.75 100H143.129V83.2266L198 8.879V243.43L55.8707 243.43L52.8421 243.43L24.8947 243.43L55.8707 201.459V208.868H143.129V141.474H100.141L130.75 100Z" fill="#B01010"/>
<path d="M173 1.5H169.5L1 1V234.5L55.5 160V141.5H69.5L99.5 100H55.5V36H143V41.5L173 1.5Z" fill="white" stroke="white"/>
<path d="M48.5352 263.281V277.5H46.6504V263.281H48.5352ZM54.4922 269.678V271.221H48.125V269.678H54.4922ZM55.459 263.281V264.824H48.125V263.281H55.459ZM68.7383 275.967V277.5H61.209V275.967H68.7383ZM61.5898 263.281V277.5H59.7051V263.281H61.5898ZM67.7422 269.395V270.928H61.209V269.395H67.7422ZM68.6406 263.281V264.824H61.209V263.281H68.6406ZM78.3359 264.541L73.6289 277.5H71.7051L77.125 263.281H78.3652L78.3359 264.541ZM82.2812 277.5L77.5645 264.541L77.5352 263.281H78.7754L84.2148 277.5H82.2812ZM82.0371 272.236V273.779H74.0488V272.236H82.0371ZM88.1191 263.281H92.8262C93.8939 263.281 94.7956 263.444 95.5312 263.77C96.2734 264.095 96.8366 264.577 97.2207 265.215C97.6113 265.846 97.8066 266.624 97.8066 267.549C97.8066 268.2 97.6732 268.796 97.4062 269.336C97.1458 269.87 96.7682 270.326 96.2734 270.703C95.7852 271.074 95.1992 271.351 94.5156 271.533L93.9883 271.738H89.5645L89.5449 270.205H92.8848C93.5618 270.205 94.125 270.088 94.5742 269.854C95.0234 269.613 95.362 269.29 95.5898 268.887C95.8177 268.483 95.9316 268.037 95.9316 267.549C95.9316 267.002 95.8242 266.523 95.6094 266.113C95.3945 265.703 95.056 265.387 94.5938 265.166C94.138 264.938 93.5488 264.824 92.8262 264.824H90.0039V277.5H88.1191V263.281ZM96.4297 277.5L92.9727 271.055L94.9355 271.045L98.4414 277.383V277.5H96.4297ZM111.066 275.967V277.5H103.957V275.967H111.066ZM104.328 263.281V277.5H102.443V263.281H104.328ZM124.258 275.967V277.5H116.729V275.967H124.258ZM117.109 263.281V277.5H115.225V263.281H117.109ZM123.262 269.395V270.928H116.729V269.395H123.262ZM124.16 263.281V264.824H116.729V263.281H124.16ZM136.17 273.906C136.17 273.574 136.118 273.281 136.014 273.027C135.916 272.767 135.74 272.533 135.486 272.324C135.239 272.116 134.894 271.917 134.451 271.729C134.015 271.54 133.462 271.348 132.791 271.152C132.088 270.944 131.453 270.713 130.887 270.459C130.32 270.199 129.835 269.902 129.432 269.57C129.028 269.238 128.719 268.857 128.504 268.428C128.289 267.998 128.182 267.507 128.182 266.953C128.182 266.4 128.296 265.889 128.523 265.42C128.751 264.951 129.077 264.544 129.5 264.199C129.93 263.848 130.441 263.574 131.033 263.379C131.626 263.184 132.286 263.086 133.016 263.086C134.083 263.086 134.988 263.291 135.73 263.701C136.479 264.105 137.049 264.635 137.439 265.293C137.83 265.944 138.025 266.641 138.025 267.383H136.15C136.15 266.849 136.036 266.377 135.809 265.967C135.581 265.55 135.236 265.225 134.773 264.99C134.311 264.749 133.725 264.629 133.016 264.629C132.345 264.629 131.792 264.73 131.355 264.932C130.919 265.133 130.594 265.407 130.379 265.752C130.171 266.097 130.066 266.491 130.066 266.934C130.066 267.233 130.128 267.507 130.252 267.754C130.382 267.995 130.581 268.219 130.848 268.428C131.121 268.636 131.466 268.828 131.883 269.004C132.306 269.18 132.811 269.349 133.396 269.512C134.204 269.74 134.9 269.993 135.486 270.273C136.072 270.553 136.554 270.869 136.932 271.221C137.316 271.566 137.599 271.96 137.781 272.402C137.97 272.839 138.064 273.333 138.064 273.887C138.064 274.466 137.947 274.99 137.713 275.459C137.479 275.928 137.143 276.328 136.707 276.66C136.271 276.992 135.747 277.249 135.135 277.432C134.529 277.607 133.852 277.695 133.104 277.695C132.446 277.695 131.798 277.604 131.16 277.422C130.529 277.24 129.952 276.966 129.432 276.602C128.917 276.237 128.504 275.788 128.191 275.254C127.885 274.714 127.732 274.089 127.732 273.379H129.607C129.607 273.867 129.702 274.287 129.891 274.639C130.079 274.984 130.337 275.27 130.662 275.498C130.994 275.726 131.368 275.895 131.785 276.006C132.208 276.11 132.648 276.162 133.104 276.162C133.761 276.162 134.318 276.071 134.773 275.889C135.229 275.706 135.574 275.446 135.809 275.107C136.049 274.769 136.17 274.368 136.17 273.906ZM150.045 273.906C150.045 273.574 149.993 273.281 149.889 273.027C149.791 272.767 149.615 272.533 149.361 272.324C149.114 272.116 148.769 271.917 148.326 271.729C147.89 271.54 147.337 271.348 146.666 271.152C145.963 270.944 145.328 270.713 144.762 270.459C144.195 270.199 143.71 269.902 143.307 269.57C142.903 269.238 142.594 268.857 142.379 268.428C142.164 267.998 142.057 267.507 142.057 266.953C142.057 266.4 142.171 265.889 142.398 265.42C142.626 264.951 142.952 264.544 143.375 264.199C143.805 263.848 144.316 263.574 144.908 263.379C145.501 263.184 146.161 263.086 146.891 263.086C147.958 263.086 148.863 263.291 149.605 263.701C150.354 264.105 150.924 264.635 151.314 265.293C151.705 265.944 151.9 266.641 151.9 267.383H150.025C150.025 266.849 149.911 266.377 149.684 265.967C149.456 265.55 149.111 265.225 148.648 264.99C148.186 264.749 147.6 264.629 146.891 264.629C146.22 264.629 145.667 264.73 145.23 264.932C144.794 265.133 144.469 265.407 144.254 265.752C144.046 266.097 143.941 266.491 143.941 266.934C143.941 267.233 144.003 267.507 144.127 267.754C144.257 267.995 144.456 268.219 144.723 268.428C144.996 268.636 145.341 268.828 145.758 269.004C146.181 269.18 146.686 269.349 147.271 269.512C148.079 269.74 148.775 269.993 149.361 270.273C149.947 270.553 150.429 270.869 150.807 271.221C151.191 271.566 151.474 271.96 151.656 272.402C151.845 272.839 151.939 273.333 151.939 273.887C151.939 274.466 151.822 274.99 151.588 275.459C151.354 275.928 151.018 276.328 150.582 276.66C150.146 276.992 149.622 277.249 149.01 277.432C148.404 277.607 147.727 277.695 146.979 277.695C146.321 277.695 145.673 277.604 145.035 277.422C144.404 277.24 143.827 276.966 143.307 276.602C142.792 276.237 142.379 275.788 142.066 275.254C141.76 274.714 141.607 274.089 141.607 273.379H143.482C143.482 273.867 143.577 274.287 143.766 274.639C143.954 274.984 144.212 275.27 144.537 275.498C144.869 275.726 145.243 275.895 145.66 276.006C146.083 276.11 146.523 276.162 146.979 276.162C147.636 276.162 148.193 276.071 148.648 275.889C149.104 275.706 149.449 275.446 149.684 275.107C149.924 274.769 150.045 274.368 150.045 273.906Z" fill="white"/>
<path d="M12.0537 282.727V300.5H8.69678V282.727H12.0537ZM19.2192 290.405V293.054H11.1748V290.405H19.2192ZM20.1592 282.727V285.375H11.1748V282.727H20.1592ZM34.8296 282.727H38.1865V294.531C38.1865 295.89 37.8936 297.033 37.3076 297.961C36.7217 298.881 35.9242 299.576 34.915 300.048C33.9059 300.512 32.7585 300.744 31.4727 300.744C30.1706 300.744 29.0109 300.512 27.9937 300.048C26.9764 299.576 26.1789 298.881 25.6011 297.961C25.0233 297.033 24.7344 295.89 24.7344 294.531V282.727H28.0913V294.531C28.0913 295.361 28.2297 296.04 28.5063 296.569C28.783 297.09 29.1737 297.477 29.6782 297.729C30.1828 297.981 30.7809 298.107 31.4727 298.107C32.1725 298.107 32.7707 297.981 33.2671 297.729C33.7716 297.477 34.1582 297.09 34.4268 296.569C34.6953 296.04 34.8296 295.361 34.8296 294.531V282.727ZM55.1519 297.863V300.5H46.2163V297.863H55.1519ZM47.2295 282.727V300.5H43.8726V282.727H47.2295ZM71.1772 297.863V300.5H62.2417V297.863H71.1772ZM63.2549 282.727V300.5H59.8979V282.727H63.2549ZM82.1001 291.613V294.165H75.4229V291.613H82.1001ZM96.9048 295.886C96.9048 295.544 96.8519 295.239 96.7461 294.97C96.6484 294.694 96.4653 294.445 96.1968 294.226C95.9364 293.998 95.5661 293.778 95.0859 293.566C94.6139 293.347 94.0036 293.119 93.2549 292.883C92.4248 292.622 91.6517 292.329 90.9355 292.004C90.2194 291.678 89.5887 291.3 89.0435 290.869C88.5063 290.437 88.0872 289.941 87.7861 289.379C87.485 288.81 87.3345 288.151 87.3345 287.402C87.3345 286.669 87.4891 286.002 87.7983 285.4C88.1157 284.798 88.5633 284.281 89.1411 283.85C89.7189 283.41 90.3984 283.072 91.1797 282.836C91.9691 282.6 92.8398 282.482 93.792 282.482C95.1104 282.482 96.2497 282.722 97.21 283.203C98.1784 283.683 98.9271 284.334 99.4561 285.156C99.985 285.978 100.25 286.901 100.25 287.927H96.9048C96.9048 287.373 96.7868 286.885 96.5508 286.462C96.3229 286.039 95.973 285.705 95.501 285.461C95.0371 285.217 94.4512 285.095 93.7432 285.095C93.0596 285.095 92.4899 285.196 92.0342 285.4C91.5866 285.603 91.2489 285.88 91.021 286.23C90.8013 286.58 90.6914 286.971 90.6914 287.402C90.6914 287.727 90.7687 288.02 90.9233 288.281C91.078 288.533 91.3099 288.773 91.6191 289.001C91.9284 289.221 92.3109 289.428 92.7666 289.624C93.2305 289.811 93.7676 289.998 94.3779 290.185C95.3545 290.478 96.209 290.804 96.9414 291.162C97.682 291.52 98.2964 291.927 98.7847 292.382C99.2811 292.838 99.6514 293.351 99.8955 293.92C100.148 294.49 100.274 295.137 100.274 295.861C100.274 296.626 100.123 297.31 99.8223 297.912C99.5212 298.514 99.0898 299.027 98.5283 299.45C97.9668 299.873 97.2913 300.195 96.502 300.415C95.7207 300.634 94.8459 300.744 93.8774 300.744C93.0148 300.744 92.1603 300.63 91.314 300.402C90.4757 300.166 89.7148 299.816 89.0312 299.353C88.3477 298.881 87.8024 298.286 87.3955 297.57C86.9886 296.846 86.7852 296 86.7852 295.031H90.1543C90.1543 295.593 90.2438 296.073 90.4229 296.472C90.61 296.862 90.8704 297.184 91.2041 297.436C91.5459 297.68 91.9447 297.859 92.4004 297.973C92.8561 298.087 93.3485 298.144 93.8774 298.144C94.561 298.144 95.1226 298.05 95.562 297.863C96.0096 297.668 96.3433 297.399 96.563 297.058C96.7909 296.716 96.9048 296.325 96.9048 295.886ZM112.991 282.727V300.5H109.646V282.727H112.991ZM118.509 282.727V285.375H104.19V282.727H118.509ZM129.065 285.424L124 300.5H120.447L127.088 282.727H129.358L129.065 285.424ZM133.301 300.5L128.211 285.424L127.906 282.727H130.188L136.866 300.5H133.301ZM133.069 293.896V296.545H123.536V293.896H133.069ZM151.377 294.653H154.734C154.645 295.841 154.315 296.895 153.746 297.814C153.176 298.726 152.382 299.442 151.365 299.963C150.348 300.484 149.115 300.744 147.667 300.744C146.552 300.744 145.547 300.549 144.651 300.158C143.764 299.759 143.003 299.194 142.369 298.461C141.742 297.721 141.262 296.834 140.928 295.8C140.595 294.759 140.428 293.591 140.428 292.297V290.942C140.428 289.648 140.599 288.48 140.94 287.438C141.282 286.397 141.771 285.51 142.405 284.777C143.048 284.037 143.817 283.467 144.712 283.068C145.616 282.67 146.625 282.47 147.74 282.47C149.188 282.47 150.413 282.739 151.414 283.276C152.415 283.805 153.192 284.533 153.746 285.461C154.299 286.389 154.633 287.455 154.747 288.659H151.39C151.325 287.91 151.162 287.276 150.901 286.755C150.649 286.234 150.267 285.839 149.754 285.571C149.249 285.294 148.578 285.156 147.74 285.156C147.089 285.156 146.515 285.278 146.019 285.522C145.53 285.766 145.123 286.132 144.798 286.621C144.472 287.101 144.228 287.703 144.065 288.427C143.903 289.143 143.821 289.973 143.821 290.917V292.297C143.821 293.2 143.895 294.01 144.041 294.726C144.188 295.442 144.415 296.049 144.725 296.545C145.034 297.041 145.433 297.42 145.921 297.68C146.409 297.941 146.991 298.071 147.667 298.071C148.488 298.071 149.156 297.941 149.668 297.68C150.189 297.42 150.584 297.037 150.853 296.533C151.129 296.028 151.304 295.402 151.377 294.653ZM163.191 282.727V300.5H159.834V282.727H163.191ZM173.86 282.727L166.731 291.394L162.654 295.751L162.056 292.492L164.888 288.818L169.747 282.727H173.86ZM170.125 300.5L164.595 292.175L167 290.002L174.117 300.5H170.125ZM187.481 295.886C187.481 295.544 187.428 295.239 187.322 294.97C187.225 294.694 187.042 294.445 186.773 294.226C186.513 293.998 186.142 293.778 185.662 293.566C185.19 293.347 184.58 293.119 183.831 292.883C183.001 292.622 182.228 292.329 181.512 292.004C180.796 291.678 180.165 291.3 179.62 290.869C179.083 290.437 178.663 289.941 178.362 289.379C178.061 288.81 177.911 288.151 177.911 287.402C177.911 286.669 178.065 286.002 178.375 285.4C178.692 284.798 179.139 284.281 179.717 283.85C180.295 283.41 180.975 283.072 181.756 282.836C182.545 282.6 183.416 282.482 184.368 282.482C185.687 282.482 186.826 282.722 187.786 283.203C188.755 283.683 189.503 284.334 190.032 285.156C190.561 285.978 190.826 286.901 190.826 287.927H187.481C187.481 287.373 187.363 286.885 187.127 286.462C186.899 286.039 186.549 285.705 186.077 285.461C185.613 285.217 185.027 285.095 184.319 285.095C183.636 285.095 183.066 285.196 182.61 285.4C182.163 285.603 181.825 285.88 181.597 286.23C181.377 286.58 181.268 286.971 181.268 287.402C181.268 287.727 181.345 288.02 181.5 288.281C181.654 288.533 181.886 288.773 182.195 289.001C182.505 289.221 182.887 289.428 183.343 289.624C183.807 289.811 184.344 289.998 184.954 290.185C185.931 290.478 186.785 290.804 187.518 291.162C188.258 291.52 188.873 291.927 189.361 292.382C189.857 292.838 190.228 293.351 190.472 293.92C190.724 294.49 190.85 295.137 190.85 295.861C190.85 296.626 190.7 297.31 190.398 297.912C190.097 298.514 189.666 299.027 189.104 299.45C188.543 299.873 187.868 300.195 187.078 300.415C186.297 300.634 185.422 300.744 184.454 300.744C183.591 300.744 182.736 300.63 181.89 300.402C181.052 300.166 180.291 299.816 179.607 299.353C178.924 298.881 178.379 298.286 177.972 297.57C177.565 296.846 177.361 296 177.361 295.031H180.73C180.73 295.593 180.82 296.073 180.999 296.472C181.186 296.862 181.447 297.184 181.78 297.436C182.122 297.68 182.521 297.859 182.977 297.973C183.432 298.087 183.925 298.144 184.454 298.144C185.137 298.144 185.699 298.05 186.138 297.863C186.586 297.668 186.919 297.399 187.139 297.058C187.367 296.716 187.481 296.325 187.481 295.886Z" fill="#B01010"/>
</svg>
