<svg width="198" height="307" viewBox="0 0 198 307" fill="none" xmlns="http://www.w3.org/2000/svg">
<path fill-rule="evenodd" clip-rule="evenodd" d="M172.754 1.99999H143.129L1 2V234.72L55.8707 160.373V141.974H69.4498L100.059 100.5H55.8707V36.5614H143.129V42.1408L172.754 1.99999ZM130.75 100.5H143.129V83.7266L198 9.379V243.93L55.8707 243.93L52.8421 243.93L24.8947 243.93L55.8707 201.959V209.368H143.129V141.974H100.141L130.75 100.5Z" fill="#841010"/>
<path d="M173 2H169.5L1 1.5V235L55.5 160.5V142H69.5L99.5 100.5H55.5V36.5H143V42L173 2Z" fill="black" stroke="black"/>
<path d="M48.5352 263.781V278H46.6504V263.781H48.5352ZM54.4922 270.178V271.721H48.125V270.178H54.4922ZM55.459 263.781V265.324H48.125V263.781H55.459ZM68.7383 276.467V278H61.209V276.467H68.7383ZM61.5898 263.781V278H59.7051V263.781H61.5898ZM67.7422 269.895V271.428H61.209V269.895H67.7422ZM68.6406 263.781V265.324H61.209V263.781H68.6406ZM78.3359 265.041L73.6289 278H71.7051L77.125 263.781H78.3652L78.3359 265.041ZM82.2812 278L77.5645 265.041L77.5352 263.781H78.7754L84.2148 278H82.2812ZM82.0371 272.736V274.279H74.0488V272.736H82.0371ZM88.1191 263.781H92.8262C93.8939 263.781 94.7956 263.944 95.5312 264.27C96.2734 264.595 96.8366 265.077 97.2207 265.715C97.6113 266.346 97.8066 267.124 97.8066 268.049C97.8066 268.7 97.6732 269.296 97.4062 269.836C97.1458 270.37 96.7682 270.826 96.2734 271.203C95.7852 271.574 95.1992 271.851 94.5156 272.033L93.9883 272.238H89.5645L89.5449 270.705H92.8848C93.5618 270.705 94.125 270.588 94.5742 270.354C95.0234 270.113 95.362 269.79 95.5898 269.387C95.8177 268.983 95.9316 268.537 95.9316 268.049C95.9316 267.502 95.8242 267.023 95.6094 266.613C95.3945 266.203 95.056 265.887 94.5938 265.666C94.138 265.438 93.5488 265.324 92.8262 265.324H90.0039V278H88.1191V263.781ZM96.4297 278L92.9727 271.555L94.9355 271.545L98.4414 277.883V278H96.4297ZM111.066 276.467V278H103.957V276.467H111.066ZM104.328 263.781V278H102.443V263.781H104.328ZM124.258 276.467V278H116.729V276.467H124.258ZM117.109 263.781V278H115.225V263.781H117.109ZM123.262 269.895V271.428H116.729V269.895H123.262ZM124.16 263.781V265.324H116.729V263.781H124.16ZM136.17 274.406C136.17 274.074 136.118 273.781 136.014 273.527C135.916 273.267 135.74 273.033 135.486 272.824C135.239 272.616 134.894 272.417 134.451 272.229C134.015 272.04 133.462 271.848 132.791 271.652C132.088 271.444 131.453 271.213 130.887 270.959C130.32 270.699 129.835 270.402 129.432 270.07C129.028 269.738 128.719 269.357 128.504 268.928C128.289 268.498 128.182 268.007 128.182 267.453C128.182 266.9 128.296 266.389 128.523 265.92C128.751 265.451 129.077 265.044 129.5 264.699C129.93 264.348 130.441 264.074 131.033 263.879C131.626 263.684 132.286 263.586 133.016 263.586C134.083 263.586 134.988 263.791 135.73 264.201C136.479 264.605 137.049 265.135 137.439 265.793C137.83 266.444 138.025 267.141 138.025 267.883H136.15C136.15 267.349 136.036 266.877 135.809 266.467C135.581 266.05 135.236 265.725 134.773 265.49C134.311 265.249 133.725 265.129 133.016 265.129C132.345 265.129 131.792 265.23 131.355 265.432C130.919 265.633 130.594 265.907 130.379 266.252C130.171 266.597 130.066 266.991 130.066 267.434C130.066 267.733 130.128 268.007 130.252 268.254C130.382 268.495 130.581 268.719 130.848 268.928C131.121 269.136 131.466 269.328 131.883 269.504C132.306 269.68 132.811 269.849 133.396 270.012C134.204 270.24 134.9 270.493 135.486 270.773C136.072 271.053 136.554 271.369 136.932 271.721C137.316 272.066 137.599 272.46 137.781 272.902C137.97 273.339 138.064 273.833 138.064 274.387C138.064 274.966 137.947 275.49 137.713 275.959C137.479 276.428 137.143 276.828 136.707 277.16C136.271 277.492 135.747 277.749 135.135 277.932C134.529 278.107 133.852 278.195 133.104 278.195C132.446 278.195 131.798 278.104 131.16 277.922C130.529 277.74 129.952 277.466 129.432 277.102C128.917 276.737 128.504 276.288 128.191 275.754C127.885 275.214 127.732 274.589 127.732 273.879H129.607C129.607 274.367 129.702 274.787 129.891 275.139C130.079 275.484 130.337 275.77 130.662 275.998C130.994 276.226 131.368 276.395 131.785 276.506C132.208 276.61 132.648 276.662 133.104 276.662C133.761 276.662 134.318 276.571 134.773 276.389C135.229 276.206 135.574 275.946 135.809 275.607C136.049 275.269 136.17 274.868 136.17 274.406ZM150.045 274.406C150.045 274.074 149.993 273.781 149.889 273.527C149.791 273.267 149.615 273.033 149.361 272.824C149.114 272.616 148.769 272.417 148.326 272.229C147.89 272.04 147.337 271.848 146.666 271.652C145.963 271.444 145.328 271.213 144.762 270.959C144.195 270.699 143.71 270.402 143.307 270.07C142.903 269.738 142.594 269.357 142.379 268.928C142.164 268.498 142.057 268.007 142.057 267.453C142.057 266.9 142.171 266.389 142.398 265.92C142.626 265.451 142.952 265.044 143.375 264.699C143.805 264.348 144.316 264.074 144.908 263.879C145.501 263.684 146.161 263.586 146.891 263.586C147.958 263.586 148.863 263.791 149.605 264.201C150.354 264.605 150.924 265.135 151.314 265.793C151.705 266.444 151.9 267.141 151.9 267.883H150.025C150.025 267.349 149.911 266.877 149.684 266.467C149.456 266.05 149.111 265.725 148.648 265.49C148.186 265.249 147.6 265.129 146.891 265.129C146.22 265.129 145.667 265.23 145.23 265.432C144.794 265.633 144.469 265.907 144.254 266.252C144.046 266.597 143.941 266.991 143.941 267.434C143.941 267.733 144.003 268.007 144.127 268.254C144.257 268.495 144.456 268.719 144.723 268.928C144.996 269.136 145.341 269.328 145.758 269.504C146.181 269.68 146.686 269.849 147.271 270.012C148.079 270.24 148.775 270.493 149.361 270.773C149.947 271.053 150.429 271.369 150.807 271.721C151.191 272.066 151.474 272.46 151.656 272.902C151.845 273.339 151.939 273.833 151.939 274.387C151.939 274.966 151.822 275.49 151.588 275.959C151.354 276.428 151.018 276.828 150.582 277.16C150.146 277.492 149.622 277.749 149.01 277.932C148.404 278.107 147.727 278.195 146.979 278.195C146.321 278.195 145.673 278.104 145.035 277.922C144.404 277.74 143.827 277.466 143.307 277.102C142.792 276.737 142.379 276.288 142.066 275.754C141.76 275.214 141.607 274.589 141.607 273.879H143.482C143.482 274.367 143.577 274.787 143.766 275.139C143.954 275.484 144.212 275.77 144.537 275.998C144.869 276.226 145.243 276.395 145.66 276.506C146.083 276.61 146.523 276.662 146.979 276.662C147.636 276.662 148.193 276.571 148.648 276.389C149.104 276.206 149.449 275.946 149.684 275.607C149.924 275.269 150.045 274.868 150.045 274.406Z" fill="black"/>
<path d="M12.0537 283.227V301H8.69678V283.227H12.0537ZM19.2192 290.905V293.554H11.1748V290.905H19.2192ZM20.1592 283.227V285.875H11.1748V283.227H20.1592ZM34.8296 283.227H38.1865V295.031C38.1865 296.39 37.8936 297.533 37.3076 298.461C36.7217 299.381 35.9242 300.076 34.915 300.548C33.9059 301.012 32.7585 301.244 31.4727 301.244C30.1706 301.244 29.0109 301.012 27.9937 300.548C26.9764 300.076 26.1789 299.381 25.6011 298.461C25.0233 297.533 24.7344 296.39 24.7344 295.031V283.227H28.0913V295.031C28.0913 295.861 28.2297 296.54 28.5063 297.069C28.783 297.59 29.1737 297.977 29.6782 298.229C30.1828 298.481 30.7809 298.607 31.4727 298.607C32.1725 298.607 32.7707 298.481 33.2671 298.229C33.7716 297.977 34.1582 297.59 34.4268 297.069C34.6953 296.54 34.8296 295.861 34.8296 295.031V283.227ZM55.1519 298.363V301H46.2163V298.363H55.1519ZM47.2295 283.227V301H43.8726V283.227H47.2295ZM71.1772 298.363V301H62.2417V298.363H71.1772ZM63.2549 283.227V301H59.8979V283.227H63.2549ZM82.1001 292.113V294.665H75.4229V292.113H82.1001ZM96.9048 296.386C96.9048 296.044 96.8519 295.739 96.7461 295.47C96.6484 295.194 96.4653 294.945 96.1968 294.726C95.9364 294.498 95.5661 294.278 95.0859 294.066C94.6139 293.847 94.0036 293.619 93.2549 293.383C92.4248 293.122 91.6517 292.829 90.9355 292.504C90.2194 292.178 89.5887 291.8 89.0435 291.369C88.5063 290.937 88.0872 290.441 87.7861 289.879C87.485 289.31 87.3345 288.651 87.3345 287.902C87.3345 287.169 87.4891 286.502 87.7983 285.9C88.1157 285.298 88.5633 284.781 89.1411 284.35C89.7189 283.91 90.3984 283.572 91.1797 283.336C91.9691 283.1 92.8398 282.982 93.792 282.982C95.1104 282.982 96.2497 283.222 97.21 283.703C98.1784 284.183 98.9271 284.834 99.4561 285.656C99.985 286.478 100.25 287.401 100.25 288.427H96.9048C96.9048 287.873 96.7868 287.385 96.5508 286.962C96.3229 286.539 95.973 286.205 95.501 285.961C95.0371 285.717 94.4512 285.595 93.7432 285.595C93.0596 285.595 92.4899 285.696 92.0342 285.9C91.5866 286.103 91.2489 286.38 91.021 286.73C90.8013 287.08 90.6914 287.471 90.6914 287.902C90.6914 288.227 90.7687 288.52 90.9233 288.781C91.078 289.033 91.3099 289.273 91.6191 289.501C91.9284 289.721 92.3109 289.928 92.7666 290.124C93.2305 290.311 93.7676 290.498 94.3779 290.685C95.3545 290.978 96.209 291.304 96.9414 291.662C97.682 292.02 98.2964 292.427 98.7847 292.882C99.2811 293.338 99.6514 293.851 99.8955 294.42C100.148 294.99 100.274 295.637 100.274 296.361C100.274 297.126 100.123 297.81 99.8223 298.412C99.5212 299.014 99.0898 299.527 98.5283 299.95C97.9668 300.373 97.2913 300.695 96.502 300.915C95.7207 301.134 94.8459 301.244 93.8774 301.244C93.0148 301.244 92.1603 301.13 91.314 300.902C90.4757 300.666 89.7148 300.316 89.0312 299.853C88.3477 299.381 87.8024 298.786 87.3955 298.07C86.9886 297.346 86.7852 296.5 86.7852 295.531H90.1543C90.1543 296.093 90.2438 296.573 90.4229 296.972C90.61 297.362 90.8704 297.684 91.2041 297.936C91.5459 298.18 91.9447 298.359 92.4004 298.473C92.8561 298.587 93.3485 298.644 93.8774 298.644C94.561 298.644 95.1226 298.55 95.562 298.363C96.0096 298.168 96.3433 297.899 96.563 297.558C96.7909 297.216 96.9048 296.825 96.9048 296.386ZM112.991 283.227V301H109.646V283.227H112.991ZM118.509 283.227V285.875H104.19V283.227H118.509ZM129.065 285.924L124 301H120.447L127.088 283.227H129.358L129.065 285.924ZM133.301 301L128.211 285.924L127.906 283.227H130.188L136.866 301H133.301ZM133.069 294.396V297.045H123.536V294.396H133.069ZM151.377 295.153H154.734C154.645 296.341 154.315 297.395 153.746 298.314C153.176 299.226 152.382 299.942 151.365 300.463C150.348 300.984 149.115 301.244 147.667 301.244C146.552 301.244 145.547 301.049 144.651 300.658C143.764 300.259 143.003 299.694 142.369 298.961C141.742 298.221 141.262 297.334 140.928 296.3C140.595 295.259 140.428 294.091 140.428 292.797V291.442C140.428 290.148 140.599 288.98 140.94 287.938C141.282 286.897 141.771 286.01 142.405 285.277C143.048 284.537 143.817 283.967 144.712 283.568C145.616 283.17 146.625 282.97 147.74 282.97C149.188 282.97 150.413 283.239 151.414 283.776C152.415 284.305 153.192 285.033 153.746 285.961C154.299 286.889 154.633 287.955 154.747 289.159H151.39C151.325 288.41 151.162 287.776 150.901 287.255C150.649 286.734 150.267 286.339 149.754 286.071C149.249 285.794 148.578 285.656 147.74 285.656C147.089 285.656 146.515 285.778 146.019 286.022C145.53 286.266 145.123 286.632 144.798 287.121C144.472 287.601 144.228 288.203 144.065 288.927C143.903 289.643 143.821 290.473 143.821 291.417V292.797C143.821 293.7 143.895 294.51 144.041 295.226C144.188 295.942 144.415 296.549 144.725 297.045C145.034 297.541 145.433 297.92 145.921 298.18C146.409 298.441 146.991 298.571 147.667 298.571C148.488 298.571 149.156 298.441 149.668 298.18C150.189 297.92 150.584 297.537 150.853 297.033C151.129 296.528 151.304 295.902 151.377 295.153ZM163.191 283.227V301H159.834V283.227H163.191ZM173.86 283.227L166.731 291.894L162.654 296.251L162.056 292.992L164.888 289.318L169.747 283.227H173.86ZM170.125 301L164.595 292.675L167 290.502L174.117 301H170.125ZM187.481 296.386C187.481 296.044 187.428 295.739 187.322 295.47C187.225 295.194 187.042 294.945 186.773 294.726C186.513 294.498 186.142 294.278 185.662 294.066C185.19 293.847 184.58 293.619 183.831 293.383C183.001 293.122 182.228 292.829 181.512 292.504C180.796 292.178 180.165 291.8 179.62 291.369C179.083 290.937 178.663 290.441 178.362 289.879C178.061 289.31 177.911 288.651 177.911 287.902C177.911 287.169 178.065 286.502 178.375 285.9C178.692 285.298 179.139 284.781 179.717 284.35C180.295 283.91 180.975 283.572 181.756 283.336C182.545 283.1 183.416 282.982 184.368 282.982C185.687 282.982 186.826 283.222 187.786 283.703C188.755 284.183 189.503 284.834 190.032 285.656C190.561 286.478 190.826 287.401 190.826 288.427H187.481C187.481 287.873 187.363 287.385 187.127 286.962C186.899 286.539 186.549 286.205 186.077 285.961C185.613 285.717 185.027 285.595 184.319 285.595C183.636 285.595 183.066 285.696 182.61 285.9C182.163 286.103 181.825 286.38 181.597 286.73C181.377 287.08 181.268 287.471 181.268 287.902C181.268 288.227 181.345 288.52 181.5 288.781C181.654 289.033 181.886 289.273 182.195 289.501C182.505 289.721 182.887 289.928 183.343 290.124C183.807 290.311 184.344 290.498 184.954 290.685C185.931 290.978 186.785 291.304 187.518 291.662C188.258 292.02 188.873 292.427 189.361 292.882C189.857 293.338 190.228 293.851 190.472 294.42C190.724 294.99 190.85 295.637 190.85 296.361C190.85 297.126 190.7 297.81 190.398 298.412C190.097 299.014 189.666 299.527 189.104 299.95C188.543 300.373 187.868 300.695 187.078 300.915C186.297 301.134 185.422 301.244 184.454 301.244C183.591 301.244 182.736 301.13 181.89 300.902C181.052 300.666 180.291 300.316 179.607 299.853C178.924 299.381 178.379 298.786 177.972 298.07C177.565 297.346 177.361 296.5 177.361 295.531H180.73C180.73 296.093 180.82 296.573 180.999 296.972C181.186 297.362 181.447 297.684 181.78 297.936C182.122 298.18 182.521 298.359 182.977 298.473C183.432 298.587 183.925 298.644 184.454 298.644C185.137 298.644 185.699 298.55 186.138 298.363C186.586 298.168 186.919 297.899 187.139 297.558C187.367 297.216 187.481 296.825 187.481 296.386Z" fill="#841010"/>
</svg>
